# xmcd
#
# Track frame offsets:
#	150
#	17715
#	34574
#	52421
#	73783
#	91236
#
# Disc length: 1602 seconds
#
# Revision: 1
# Processed by: cddbd v1.5.2PL0 Copyright (c) Steve Scherf et al.
# Submitted via: audiograbber 1.83.01
#
DISCID=4c064006
DTITLE=compilation - Christian County Vol 122
DYEAR=2007
DGENRE=Christian Country
TTITLE0=Jamie Slocum - Say Hello to Heaven
TTITLE1=Blue Country - I Get To
TTITLE2=Marie Miller  - My Mother Must Be Praying
TTITLE3=Selah w/Jason and Adam Crabb - Ain't No Grave
TTITLE4=Wynonna - Ave Maria
TTITLE5=Natalie Grant and Wynonna - Bring it all together
EXTD=HMG compilation disk for radio
EXTT0=
EXTT1=
EXTT2=
EXTT3=
EXTT4=
EXTT5=
PLAYORDER=
